<svg xmlns="http://www.w3.org/2000/svg" viewBox="0 0 18 18"><path fill="#4285F4" d="M17.64 9.2045c0-.6387-.0573-1.2518-.1636-1.8364H9v3.4727h4.8445c-.209 1.125-.8436 2.0782-1.7973 2.7164v2.2581h2.909c1.703-1.5698 2.6838-3.8827 2.6838-6.6108z"/><path fill="#34A853" d="M9 18c2.43 0 4.466-.806 5.955-2.184l-2.909-2.258c-.806.54-1.838.859-3.046.859-2.344 0-4.328-1.584-5.036-3.71h-3.01v2.331C1.482 15.915 4.951 18 9 18z"/><path fill="#FBBC05" d="M3.964 10.707c-.18-.54-.282-1.116-.282-1.707s.102-1.167.282-1.707V4.962H.954C.347 6.174 0 7.555 0 9s.347 2.826.954 4.038L3.01-2.331z"/><path fill="#EA4335" d="M9 3.579c1.321 0 2.506.454 3.438 1.346l2.579-2.579C13.466.889 11.43 0 9 0 4.951 0 1.482 2.085.954 4.962l3.01 2.331C4.672 5.163 6.656 3.579 9 3.579z"/></svg>