<?xml version="1.0" encoding="UTF-8"?>
<svg xmlns="http://www.w3.org/2000/svg" id="Camada_2" data-name="Camada 2" viewBox="0 0 2062.43 480.51">
  <defs>
    <style>
      .cls-1 {
        fill: #042940;
      }

      .cls-2 {
        fill: #ff4858;
      }

      .cls-3 {
        fill: #00ccc0;
      }
    </style>
  </defs>
  <g id="Camada_1-2" data-name="Camada 1">
    <g>
      <path class="cls-1" d="M481.44,392.76c-12.89,0-24.8-2.31-35.72-6.93-10.93-4.62-20.45-11.27-28.58-19.96-8.13-8.68-14.43-19.05-18.91-31.1-4.49-12.04-6.72-25.35-6.72-39.92v-83.63c0-4.76.49-9.04,1.47-12.82.98-3.78,3.29-6.79,6.93-9.03,3.64-2.24,9.25-3.36,16.81-3.36,8.12,0,13.93,1.12,17.44,3.36,3.5,2.25,5.67,5.33,6.51,9.25.84,3.93,1.26,8.27,1.26,13.03v83.21c0,10.09,1.75,18.77,5.25,26.05,3.5,7.29,8.62,12.96,15.34,17.02,6.72,4.06,14.98,6.09,24.79,6.09s18.63-2.03,25.63-6.09c7-4.06,12.46-9.8,16.39-17.23,3.92-7.42,5.88-16.04,5.88-25.84v-83.63c0-4.76.49-9.1,1.47-13.03.98-3.92,3.22-6.93,6.72-9.03,3.5-2.1,9.31-3.15,17.44-3.15s13.45,1.12,16.81,3.36c3.36,2.25,5.53,5.33,6.51,9.25.98,3.93,1.47,8.27,1.47,13.03v157.17c0,4.2-.49,8.13-1.47,11.77-.98,3.64-3.22,6.59-6.72,8.83-3.51,2.24-9.18,3.36-17.02,3.36-5.61,0-10.09-.63-13.45-1.89-3.36-1.26-5.82-2.94-7.35-5.04-1.54-2.1-2.52-4.27-2.94-6.51-.39-2.1-.6-4.2-.63-6.3,0-.28.04-.56.14-.82h0c.82-2.37-2.15-4.2-3.89-2.39-.15.16-.3.31-.45.47-3.36,3.51-7.5,7.01-12.4,10.51-4.91,3.51-10.51,6.38-16.81,8.62-6.3,2.24-13.38,3.36-21.22,3.36Z"></path>
      <path class="cls-1" d="M652.06,392.76c-7.85,0-13.52-1.19-17.02-3.57-3.51-2.38-5.67-5.46-6.51-9.25-.84-3.78-1.26-8.05-1.26-12.82v-157.17c0-4.48.49-8.54,1.47-12.19.98-3.64,3.22-6.51,6.72-8.62,3.5-2.1,9.17-3.15,17.02-3.15,6.72,0,11.77.84,15.13,2.52,3.36,1.68,5.6,3.85,6.72,6.51,1.12,2.67,1.75,5.19,1.89,7.56.12,2.16.31,3.91.55,5.26.05.28.06.56.03.84h0c-.34,2.75,3.11,4.27,4.88,2.14.6-.72,1.23-1.44,1.9-2.15,3.92-4.2,8.68-8.05,14.29-11.56,5.6-3.5,11.69-6.3,18.28-8.4,6.58-2.1,13.38-3.15,20.38-3.15,13.17,0,24.93,2.38,35.3,7.15,10.36,4.77,19.26,11.49,26.69,20.17,7.42,8.69,13.09,19.06,17.02,31.1,3.92,12.05,5.88,25.36,5.88,39.92v83.63c0,4.77-.49,9.03-1.47,12.82-.98,3.78-3.15,6.8-6.51,9.04-3.36,2.24-9.11,3.36-17.23,3.36s-13.94-1.19-17.44-3.57c-3.51-2.38-5.75-5.46-6.72-9.25-.98-3.78-1.47-8.05-1.47-12.82v-83.21c0-10.09-1.68-18.77-5.04-26.06-3.36-7.28-8.4-12.96-15.13-17.02-6.72-4.06-15.13-6.09-25.21-6.09-9.53,0-17.93,2.04-25.21,6.09-7.29,4.06-12.89,9.74-16.81,17.02-3.93,7.29-5.88,15.97-5.88,26.06v83.63c0,4.77-.42,9.03-1.26,12.82-.84,3.78-3.01,6.8-6.51,9.04-3.51,2.24-9.32,3.36-17.44,3.36Z"></path>
      <path class="cls-1" d="M870.16,190.2l43.28.42,57.99-1.68c4.76,0,9.04.49,12.82,1.47,3.78.98,6.79,3.22,9.03,6.72,2.24,3.51,3.36,9.18,3.36,17.02s-1.12,13.1-3.36,16.6c-2.25,3.51-5.19,5.82-8.82,6.93-3.64,1.12-7.85,1.68-12.61,1.68l-56.31-1.26-46.65.42c-7.29-.28-12.26-2.24-14.92-5.88-2.67-3.64-3.99-9.8-3.99-18.49s1.61-14.5,4.83-18.28c3.22-3.78,8.33-5.67,15.34-5.67ZM964.72,393.18c-13.73,0-25.5-1.41-35.3-4.2-9.81-2.8-17.86-7.14-24.16-13.03-6.3-5.88-10.86-13.51-13.66-22.9-2.8-9.38-4.2-20.52-4.2-33.41v-178.18c0-4.76.42-9.03,1.26-12.82.84-3.78,3.01-6.72,6.51-8.83,3.5-2.1,9.17-3.15,17.02-3.15s13.51,1.12,17.02,3.36c3.5,2.24,5.74,5.25,6.72,9.03.98,3.78,1.47,8.06,1.47,12.82v176.08c0,5.88.49,10.65,1.47,14.29.98,3.64,2.52,6.38,4.62,8.19,2.1,1.83,4.9,3.09,8.4,3.78,3.5.7,7.78,1.05,12.82,1.05,5.32,0,9.88.42,13.66,1.26,3.78.84,6.65,2.88,8.61,6.09,1.96,3.22,2.94,8.48,2.94,15.76,0,7.85-1.19,13.52-3.57,17.02-2.38,3.51-5.46,5.67-9.25,6.51-3.78.84-7.92,1.26-12.4,1.26Z"></path>
      <path class="cls-1" d="M1200.47,392.34c-8.4,0-14.5-1.54-18.28-4.62-3.67-2.98-5.69-7.02-6.06-12.12-.02-.32,0-.65.07-.96l.05-.23c.69-3.27-3.28-5.44-5.66-3.09-.91.89-1.87,1.81-2.89,2.75-5.33,4.91-12.26,9.25-20.8,13.03-8.55,3.78-18.98,5.67-31.31,5.67-13.17,0-25.57-2.73-37.19-8.19-11.63-5.46-21.93-13.03-30.89-22.69-8.97-9.67-15.97-20.73-21.01-33.2-5.04-12.46-7.56-25.84-7.56-40.13s2.52-26.69,7.56-38.87c5.04-12.19,12.11-23.04,21.22-32.57,9.1-9.52,19.4-17.02,30.89-22.48,11.49-5.46,23.81-8.19,36.98-8.19,11.2,0,20.8,1.54,28.79,4.62,7.99,3.09,14.77,6.93,20.38,11.56,2.19,1.81,4.24,3.65,6.13,5.53,2.33,2.31,6.24.26,5.68-2.97h0c-.03-.16-.05-.34-.05-.5-.22-6.03,1.6-10.64,5.47-13.82,3.92-3.22,10.22-4.83,18.91-4.83,7.56,0,13.09,1.2,16.6,3.57,3.5,2.38,5.67,5.67,6.51,9.88.84,4.2,1.26,8.82,1.26,13.87v153.39c0,4.77-.42,9.11-1.26,13.03-.84,3.93-3.01,7.01-6.51,9.25-3.51,2.24-9.18,3.36-17.02,3.36ZM1123.15,343.59c9.25,0,17.72-2.38,25.42-7.14,7.7-4.76,13.8-11.27,18.28-19.54,4.48-8.26,6.72-17.44,6.72-27.53,0-10.64-2.31-20.03-6.93-28.16-4.62-8.12-10.86-14.56-18.7-19.33-7.85-4.76-16.39-7.15-25.64-7.15-10.37,0-19.61,2.46-27.74,7.35-8.13,4.91-14.5,11.49-19.12,19.75-4.62,8.27-6.93,17.58-6.93,27.95s2.38,19.19,7.14,27.32c4.76,8.13,11.27,14.57,19.54,19.33,8.26,4.77,17.58,7.14,27.95,7.14Z"></path>
      <path class="cls-3" d="M1460.6,248.83c-5.04-12.46-11.98-23.46-20.8-32.99-8.83-9.52-18.98-16.95-30.47-22.27-11.49-5.32-23.53-7.99-36.14-7.99-13.73,0-25.84,2.67-36.35,7.99-5.81,2.95-11.14,6.5-16,10.65-2.55,2.18-6.48.41-6.48-2.95h0c0-.37-.05-.74-.15-1.09-1.45-5.04-4.2-8.64-8.26-10.81-4.2-2.24-9.95-3.36-17.23-3.36-7.85,0-13.52,1.2-17.02,3.57-3.51,2.38-5.67,5.46-6.51,9.25-.84,3.78-1.26,8.06-1.26,12.82v241.22c0,4.76.49,8.96,1.47,12.61.98,3.64,3.22,6.65,6.72,9.04,3.5,2.38,9.17,3.57,17.02,3.57s13.59-1.2,17.23-3.57c3.64-2.38,5.95-5.46,6.93-9.25.98-3.78,1.33-8.06,1.05-12.82v-76.92c0-3.33,3.86-5.11,6.43-2.99,4.74,3.9,9.95,7.22,15.63,9.94,10.78,5.19,23.04,7.78,36.77,7.78,12.88,0,25-2.52,36.35-7.56,11.35-5.04,21.43-12.12,30.26-21.22,8.82-9.1,15.76-19.82,20.8-32.15,5.04-12.32,7.56-25.77,7.56-40.34s-2.52-27.66-7.56-40.13ZM1411.22,316.91c-4.62,8.27-10.86,14.71-18.7,19.33-7.85,4.62-16.67,6.93-26.47,6.93-9.25,0-17.79-2.31-25.64-6.93-7.85-4.62-14.08-11.06-18.7-19.33-4.62-8.26-6.93-17.58-6.93-27.95s2.31-19.61,6.93-27.74c4.62-8.12,10.85-14.5,18.7-19.12,7.84-4.62,16.53-6.93,26.06-6.93s18.63,2.25,26.48,6.72c7.84,4.48,14.01,10.79,18.49,18.91,4.48,8.13,6.72,17.51,6.72,28.16s-2.31,19.69-6.93,27.95Z"></path>
      <path class="cls-3" d="M1575.74,393.18c-10.37,0-19.54-.7-27.53-2.1-7.98-1.41-14.85-3.78-20.59-7.14-5.75-3.36-10.51-7.91-14.29-13.66-3.78-5.74-6.51-12.82-8.19-21.22-1.68-8.4-2.52-18.49-2.52-30.26V116.66c0-5.04.42-9.46,1.26-13.24.84-3.78,3.08-6.86,6.72-9.25,3.64-2.38,9.38-3.57,17.23-3.57s13.51,1.12,17.02,3.36c3.5,2.25,5.74,5.32,6.72,9.25.98,3.93,1.47,8.27,1.47,13.03v200.46c0,5.32.35,9.74,1.05,13.24.7,3.51,1.96,6.3,3.78,8.4,1.82,2.1,4.2,3.57,7.14,4.41,2.94.84,6.51,1.26,10.72,1.26,3.64,0,6.93.42,9.88,1.26s5.32,2.94,7.14,6.3c1.82,3.36,2.73,8.82,2.73,16.39s-.91,13.59-2.73,17.23c-1.83,3.64-4.27,5.88-7.35,6.72-3.09.84-6.3,1.26-9.67,1.26Z"></path>
      <path class="cls-3" d="M1801.56,392.34c-8.4,0-14.5-1.54-18.28-4.62-3.67-2.98-5.69-7.02-6.06-12.12-.02-.32,0-.65.07-.96l.05-.23c.69-3.27-3.28-5.44-5.66-3.09-.91.89-1.87,1.81-2.89,2.75-5.33,4.91-12.26,9.25-20.8,13.03-8.55,3.78-18.98,5.67-31.31,5.67-13.17,0-25.57-2.73-37.19-8.19-11.63-5.46-21.93-13.03-30.89-22.69-8.97-9.67-15.97-20.73-21.01-33.2-5.04-12.46-7.56-25.84-7.56-40.13s2.52-26.69,7.56-38.87c5.04-12.19,12.11-23.04,21.22-32.57,9.1-9.52,19.4-17.02,30.89-22.48,11.49-5.46,23.81-8.19,36.98-8.19,11.2,0,20.8,1.54,28.79,4.62,7.99,3.09,14.77,6.93,20.38,11.56,2.19,1.81,4.24,3.65,6.13,5.53,2.33,2.31,6.24.26,5.68-2.97h0c-.03-.16-.05-.34-.05-.5-.22-6.03,1.6-10.64,5.47-13.82,3.92-3.22,10.22-4.83,18.91-4.83,7.56,0,13.09,1.2,16.6,3.57,3.5,2.38,5.67,5.67,6.51,9.88.84,4.2,1.26,8.82,1.26,13.87v153.39c0,4.77-.42,9.11-1.26,13.03-.84,3.93-3.01,7.01-6.51,9.25-3.51,2.24-9.18,3.36-17.02,3.36ZM1724.24,343.59c9.25,0,17.72-2.38,25.42-7.14,7.7-4.76,13.8-11.27,18.28-19.54,4.48-8.26,6.72-17.44,6.72-27.53,0-10.64-2.31-20.03-6.93-28.16-4.62-8.12-10.86-14.56-18.7-19.33-7.85-4.76-16.39-7.15-25.64-7.15-10.37,0-19.61,2.46-27.74,7.35-8.13,4.91-14.5,11.49-19.12,19.75-4.62,8.27-6.93,17.58-6.93,27.95s2.38,19.19,7.14,27.32c4.76,8.13,11.27,14.57,19.54,19.33,8.26,4.77,17.58,7.14,27.95,7.14Z"></path>
      <path class="cls-3" d="M2061.75,200.5c-1.54-4.9-6.66-9.31-15.34-13.24-9.25-3.92-16.18-4.97-20.8-3.15-4.62,1.83-8.9,7.22-12.82,16.18l-40.4,90.52c-2,4.49-8.19,4.96-10.85.82l-60.54-94.28c-5.04-7.84-10.02-12.33-14.92-13.45-4.91-1.12-11.7.98-20.38,6.3-7.85,4.77-12.26,9.67-13.24,14.71-.98,5.04.91,11.35,5.67,18.91,14.68,26.28,32.61,54.53,54.56,83.48,9.83,12.96,19.68,25.05,29.43,36.29-7.17,21.06-14.34,42.12-21.5,63.18l-16.25,36.41c-3.93,8.12-5.12,14.64-3.57,19.54,1.54,4.9,6.79,9.46,15.76,13.66,9.25,3.92,16.11,5.04,20.59,3.36,4.48-1.68,8.54-7.01,12.19-15.97l109.26-244.16c3.64-7.84,4.69-14.22,3.15-19.12Z"></path>
      <path class="cls-1" d="M194.97,428.46c-5.39,0-10.17-.73-14.33-2.18-4.15-1.46-7.48-4.05-9.97-7.79s-3.74-9.56-3.74-17.45c0-7.48,1.25-13.08,3.74-16.82,2.49-3.74,5.82-6.34,9.97-7.79,4.16-1.46,9.14-2.18,14.95-2.18,9.56,0,18.8-.84,27.73-2.49,8.93-1.67,16.82-4.98,23.68-9.97,6.85-4.98,12.15-12.36,15.89-22.12,3.74-9.77,5.61-22.33,5.61-37.7V30.93c0-5.39.72-9.97,2.18-13.71,1.45-3.74,4.15-6.75,8.1-9.03,3.94-2.28,9.86-3.43,17.76-3.43,7.48,0,13.18,1.15,17.13,3.43,3.94,2.29,6.54,5.61,7.79,9.97,1.25,4.36,1.87,9.45,1.87,15.27v268.55c0,21.59-3.33,40.39-9.97,56.39-6.65,15.99-15.79,29.18-27.42,39.57-11.63,10.38-25.24,18.07-40.81,23.06-15.58,4.98-32.29,7.48-50.16,7.48Z"></path>
      <path class="cls-3" d="M128.3,4.74c5.39,0,10.17.73,14.33,2.17,4.15,1.46,7.48,4.05,9.97,7.78,2.49,3.74,3.74,9.56,3.75,17.45,0,7.48-1.24,13.09-3.73,16.82-2.49,3.74-5.82,6.34-9.97,7.79-4.16,1.46-9.14,2.18-14.95,2.19-9.56,0-18.8.85-27.73,2.51-8.93,1.67-16.82,4.99-23.67,9.98-6.85,4.99-12.14,12.37-15.88,22.13-3.73,9.77-5.6,22.34-5.59,37.7l.12,271.05c0,5.39-.72,9.97-2.17,13.71-1.45,3.74-4.14,6.75-8.1,9.04-3.94,2.28-9.86,3.43-17.76,3.43-7.48,0-13.18-1.14-17.14-3.42-3.94-2.29-6.55-5.61-7.79-9.97-1.25-4.36-1.87-9.45-1.88-15.26L0,131.28c0-21.59,3.31-40.4,9.94-56.39,6.64-15.99,15.78-29.19,27.4-39.58,11.63-10.38,25.23-18.08,40.8-23.07,15.58-4.99,32.29-7.49,50.16-7.5Z"></path>
      <path class="cls-2" d="M109.33,433.9c-12.05,0-20.25-2.39-24.61-7.17-4.36-4.77-6.54-13.18-6.54-25.24s2.18-20.25,6.54-24.61c4.36-4.36,12.77-6.54,25.24-6.54s20.25,2.39,24.61,7.17c4.36,4.78,6.54,13.19,6.54,25.24s-2.29,19.73-6.85,24.3c-4.58,4.58-12.88,6.85-24.92,6.85Z"></path>
      <path class="cls-2" d="M209.26,63.55c-12.05,0-20.25-2.39-24.61-7.17-4.36-4.77-6.54-13.18-6.54-25.24s2.18-20.25,6.54-24.61c4.36-4.36,12.77-6.54,25.24-6.54s20.25,2.39,24.61,7.17c4.36,4.78,6.54,13.19,6.54,25.24s-2.29,19.73-6.85,24.3c-4.58,4.58-12.88,6.85-24.92,6.85Z"></path>
      <path class="cls-2" d="M207.72,204.95c6.62,3.88,6.62,13.46,0,17.34l-30.97,18.16-31.21,17.74c-6.68,3.79-14.97-.99-15.02-8.67l-.25-35.9.25-35.9c.05-7.68,8.34-12.47,15.02-8.67l31.21,17.74,30.97,18.16Z"></path>
    </g>
  </g>
</svg>
