<svg xmlns="http://www.w3.org/2000/svg" width="256" height="256" viewBox="0 0 256 256">
  <rect width="256" height="256" fill="rgb(216,190,140)"/>
  <circle cx="128" cy="128" r="88" fill="#E9B68E"/>
  
  <path d="M64 92 Q96 40 128 42 Q160 40 192 92 Q196 120 188 132 Q160 98 128 98 Q96 98 68 132 Q60 120 64 92 Z" fill="#2D1E14"/>
  <circle cx="84" cy="110" r="10" fill="#2D1E14"/>
  <circle cx="172" cy="110" r="10" fill="#2D1E14"/>

  <ellipse cx="92" cy="126" rx="10" ry="14" fill="#1F1F23"/>
  <ellipse cx="164" cy="126" rx="10" ry="14" fill="#1F1F23"/>
  <path d="M98 108 Q110 100 124 106" stroke="#2F2F33" stroke-width="6" stroke-linecap="round" fill="none"/>
  <path d="M158 106 Q172 100 184 110" stroke="#2F2F33" stroke-width="6" stroke-linecap="round" fill="none"/>
  <ellipse cx="128" cy="138" rx="12" ry="8" fill="#E58E72"/>
  <path d="M104 162 Q128 178 152 162" stroke="#D06A6A" stroke-width="6" stroke-linecap="round" fill="none"/>
  <circle cx="84" cy="142" r="8" fill="#E8A28C" opacity="0.7"/>
  <circle cx="172" cy="142" r="8" fill="#E8A28C" opacity="0.7"/>
  
  <circle cx="92" cy="132" r="6" fill="#FF5E5B"/>
  <circle cx="164" cy="132" r="6" fill="#FF5E5B"/>
  <rect x="96" y="130" width="64" height="4" rx="2" fill="#FF5E5B"/>

</svg>
