<svg xmlns="http://www.w3.org/2000/svg" width="256" height="256" viewBox="0 0 256 256">
  <rect width="256" height="256" fill="rgb(140,143,216)"/>
  <circle cx="128" cy="128" r="88" fill="#F5C9A8"/>
  
  <path d="M64 92 Q96 40 128 42 Q160 40 192 92 Q196 120 188 132 Q160 98 128 98 Q96 98 68 132 Q60 120 64 92 Z" fill="#D08B5A"/>
  <circle cx="84" cy="110" r="10" fill="#D08B5A"/>
  <circle cx="172" cy="110" r="10" fill="#D08B5A"/>

  <ellipse cx="92" cy="126" rx="10" ry="14" fill="#1F1F23"/>
  <ellipse cx="164" cy="126" rx="10" ry="14" fill="#1F1F23"/>
  <path d="M98 108 Q110 100 124 106" stroke="#2F2F33" stroke-width="6" stroke-linecap="round" fill="none"/>
  <path d="M158 106 Q172 100 184 110" stroke="#2F2F33" stroke-width="6" stroke-linecap="round" fill="none"/>
  <ellipse cx="128" cy="138" rx="12" ry="8" fill="#E58E72"/>
  <path d="M104 162 Q128 178 152 162" stroke="#D06A6A" stroke-width="6" stroke-linecap="round" fill="none"/>
  <circle cx="84" cy="142" r="8" fill="#E8A28C" opacity="0.7"/>
  <circle cx="172" cy="142" r="8" fill="#E8A28C" opacity="0.7"/>
  
  <path d="M96 142 Q128 154 160 142" stroke="#F15BB5" stroke-width="6" stroke-linecap="round" fill="none"/>

</svg>
