<svg xmlns="http://www.w3.org/2000/svg" width="256" height="256" viewBox="0 0 256 256">
  <rect width="256" height="256" fill="rgb(192,216,140)"/>
  <circle cx="128" cy="128" r="88" fill="#DFA57B"/>
  
  <path d="M52 124 Q48 70 98 56 Q128 48 158 56 Q208 70 204 124 Q170 94 128 96 Q86 94 52 124 Z" fill="#3B2A1A"/>
  <path d="M90 82 Q108 66 128 66 Q148 66 166 82 Q148 78 128 78 Q108 78 90 82 Z" fill="#3B2A1A" opacity="0.85"/>

  <ellipse cx="92" cy="126" rx="10" ry="14" fill="#1F1F23"/>
  <ellipse cx="164" cy="126" rx="10" ry="14" fill="#1F1F23"/>
  <path d="M98 108 Q110 100 124 106" stroke="#2F2F33" stroke-width="6" stroke-linecap="round" fill="none"/>
  <path d="M158 106 Q172 100 184 110" stroke="#2F2F33" stroke-width="6" stroke-linecap="round" fill="none"/>
  <ellipse cx="128" cy="138" rx="12" ry="8" fill="#E58E72"/>
  <path d="M104 162 Q128 178 152 162" stroke="#D06A6A" stroke-width="6" stroke-linecap="round" fill="none"/>
  <circle cx="84" cy="142" r="8" fill="#E8A28C" opacity="0.7"/>
  <circle cx="172" cy="142" r="8" fill="#E8A28C" opacity="0.7"/>
  
  <path d="M96 142 Q128 154 160 142" stroke="#7B2CBF" stroke-width="6" stroke-linecap="round" fill="none"/>

</svg>
