<svg xmlns="http://www.w3.org/2000/svg" width="256" height="256" viewBox="0 0 256 256">
  <rect width="256" height="256" fill="rgb(140,198,216)"/>
  <circle cx="128" cy="128" r="88" fill="#DFA57B"/>
  
  <path d="M56 108 Q68 52 128 50 Q188 52 200 108 Q184 94 170 90 Q150 86 128 86 Q106 86 86 90 Q72 94 56 108 Z" fill="#D08B5A"/>
  <path d="M92 74 Q110 60 128 60 Q146 60 164 74 Q146 70 128 70 Q110 70 92 74 Z" fill="#D08B5A" opacity="0.85"/>

  <ellipse cx="92" cy="126" rx="10" ry="14" fill="#1F1F23"/>
  <ellipse cx="164" cy="126" rx="10" ry="14" fill="#1F1F23"/>
  <path d="M98 108 Q110 100 124 106" stroke="#2F2F33" stroke-width="6" stroke-linecap="round" fill="none"/>
  <path d="M158 106 Q172 100 184 110" stroke="#2F2F33" stroke-width="6" stroke-linecap="round" fill="none"/>
  <ellipse cx="128" cy="138" rx="12" ry="8" fill="#E58E72"/>
  <path d="M104 162 Q128 178 152 162" stroke="#D06A6A" stroke-width="6" stroke-linecap="round" fill="none"/>
  <circle cx="84" cy="142" r="8" fill="#E8A28C" opacity="0.7"/>
  <circle cx="172" cy="142" r="8" fill="#E8A28C" opacity="0.7"/>
  
  <path d="M96 142 Q128 154 160 142" stroke="#F15BB5" stroke-width="6" stroke-linecap="round" fill="none"/>

</svg>
