<svg xmlns="http://www.w3.org/2000/svg" viewBox="0 0 128 128" fill="none">
  <defs>
    <linearGradient id="g" x1="14" y1="18" x2="118" y2="110" gradientUnits="userSpaceOnUse">
      <stop stop-color="#8CE0FF" />
      <stop offset="1" stop-color="#7C3AED" />
    </linearGradient>
  </defs>
  <rect x="12" y="12" width="104" height="104" rx="28" fill="url(#g)" />
  <path d="M42 76c4.8 8.5 13.4 15.4 26 15.4 12.6 0 22-6.9 26.8-15.4l-11-6.2c-2.4 4.6-7.8 8.3-15.8 8.3-8 0-13.5-3.7-16-8.3L42 76Z" fill="#F8FAFC"/>
  <path d="M86 52c-4.8-8.5-14.2-14.8-26.8-14.8C46.6 37.2 38 43.5 33.2 52l11 6.2c2.5-4.6 8-8.3 16-8.3s13.4 3.7 15.8 8.3L86 52Z" fill="#F8FAFC"/>
</svg>
