<svg xmlns="http://www.w3.org/2000/svg" role="img" viewBox="0 0 64 64" fill="#2D7BE5">
  <title>Alura</title>
  <rect width="64" height="64" rx="14" fill="#1E5AFF"/>
  <path fill="#2D7BE5" fill="#FFFFFF" d="M18 46V26c0-5 3.5-9 9.5-9 4.7 0 8.2 2.6 9.8 6.8l-6 2.4c-.5-1.6-1.7-2.8-3.6-2.8-2.2 0-3.7 1.6-3.7 4V46H18Zm28-3c-2.2 2.4-5.2 3.6-8.7 3.6-6.5 0-10.8-4.7-10.8-11.3 0-6.4 4.2-11.3 10.4-11.3 6.2 0 10.1 4.8 10.1 11.3 0 .6-.1 1.5-.1 1.5H33.7c.3 2.8 2.2 4.5 4.8 4.5 2 0 3.4-.8 4.4-2l3.1 3.7ZM33.5 32h8c-.2-2.3-1.6-4-3.8-4-2.2 0-3.8 1.6-4.2 4Z"/>
</svg>
