<svg width="96" height="96" viewBox="0 0 96 96" fill="none" xmlns="http://www.w3.org/2000/svg">
  <defs>
    <linearGradient id="huluBg" x1="10" y1="12" x2="86" y2="82" gradientUnits="userSpaceOnUse">
      <stop stop-color="#0B3D2E" />
      <stop offset="1" stop-color="#062017" />
    </linearGradient>
  </defs>
  <rect x="8" y="8" width="80" height="80" rx="20" fill="url(#huluBg)" />
  <rect x="12" y="12" width="72" height="72" rx="16" fill="#0CEB7B" fill-opacity="0.08" stroke="#0CEB7B" stroke-opacity="0.4" stroke-width="2" />
  <path d="M30 60.5V36.2h6v8.1c1.3-1.6 3.4-3 6.2-3 4.8 0 7.9 3.2 7.9 8.6v10.6h-6V51.3c0-2.2-1.4-3.7-3.5-3.7-2.5 0-4.3 1.8-4.3 4.8v8.1h-6zm29.1 0V36.2h6v24.3h-6zm.1-26.2v-6h6v6h-6zm10.6 26.2V41.8h6v3.1c1.3-2.2 3.3-3.5 5.9-3.5 4.6 0 7.7 3.2 7.7 8.6v10.5h-6V51.3c0-2.3-1.3-3.7-3.5-3.7-2.4 0-4 1.7-4 4.8v8.1h-6z" fill="#0CEB7B" />
</svg>
