<svg xmlns="http://www.w3.org/2000/svg" role="img" viewBox="0 0 64 64" fill="#B49F70">
  <title>LinkedIn Premium</title>
  <rect width="64" height="64" rx="12" fill="#0A66C2"/>
  <path fill="#B49F70" fill="#FFFFFF" d="M16 24c0-2.3 1.8-4 4-4s4 1.7 4 4-1.7 4-4 4-4-1.7-4-4Zm.5 8h7v18h-7V32Zm12 0h6.6v2.6h.1c.9-1.7 3.1-3.5 6.3-3.5 6.7 0 7.9 4.4 7.9 10.1V50h-7v-7.3c0-1.7 0-4-2.5-4s-2.9 1.9-2.9 3.8V50h-7V32Z"/>
  <polygon fill="#F4C542" points="52,18 54,22 58,22 55,25 56,29 52,27 48,29 49,25 46,22 50,22"/>
</svg>
