<svg role="img" viewBox="0 0 24 24" xmlns="http://www.w3.org/2000/svg">
  <title>YouTube Premium</title>
  <path fill="#FF0000" d="M23.498 6.186s-.232-1.64-.946-2.36c-.906-.946-1.92-.95-2.386-1.005C16.997 2.6 12.004 2.6 12.004 2.6h-.01s-4.992 0-8.162.22c-.466.055-1.48.06-2.386 1.005-.714.72-.946 2.36-.946 2.36S0 8.07 0 9.955v1.81c0 1.886.554 3.77.554 3.77s.232 1.64.946 2.36c.906.946 2.096.916 2.626 1.016 1.905.182 8.074.238 8.074.238s4.996-.008 8.166-.228c.466-.055 1.48-.06 2.386-1.005.714-.72.946-2.36.946-2.36s.554-1.885.554-3.77v-1.81c0-1.885-.554-3.77-.554-3.77Z"/>
  <path fill="#FFFFFF" d="m9.606 8.093 5.366 3.38-5.366 3.38Z"/>
</svg>
