<?xml version="1.0" encoding="UTF-8"?>
<svg xmlns="http://www.w3.org/2000/svg" xmlns:xlink="http://www.w3.org/1999/xlink" version="1.1" id="Camada_2_1_" x="0px" y="0px" viewBox="0 0 2062.4 480.5" style="enable-background:new 0 0 2062.4 480.5;" xml:space="preserve">
<style type="text/css">
	.st0{fill:#020202;}
</style>
<g id="Camada_1-2">
	<g>
		<path d="M481.4,392.8c-12.9,0-24.8-2.3-35.7-6.9c-10.9-4.6-20.5-11.3-28.6-20s-14.4-19-18.9-31.1c-4.5-12-6.7-25.4-6.7-39.9v-83.6    c0-4.8,0.5-9,1.5-12.8s3.3-6.8,6.9-9s9.3-3.4,16.8-3.4c8.1,0,13.9,1.1,17.4,3.4c3.5,2.3,5.7,5.3,6.5,9.3c0.8,3.9,1.3,8.3,1.3,13    V295c0,10.1,1.8,18.8,5.3,26c3.5,7.3,8.6,13,15.3,17s15,6.1,24.8,6.1s18.6-2,25.6-6.1s12.5-9.8,16.4-17.2c3.9-7.4,5.9-16,5.9-25.8    v-83.6c0-4.8,0.5-9.1,1.5-13s3.2-6.9,6.7-9s9.3-3.1,17.4-3.1s13.5,1.1,16.8,3.4c3.4,2.3,5.5,5.3,6.5,9.3c1,3.9,1.5,8.3,1.5,13    v157.2c0,4.2-0.5,8.1-1.5,11.8c-1,3.6-3.2,6.6-6.7,8.8c-3.5,2.2-9.2,3.4-17,3.4c-5.6,0-10.1-0.6-13.5-1.9s-5.8-2.9-7.3-5    s-2.5-4.3-2.9-6.5c-0.4-2.1-0.6-4.2-0.6-6.3c0-0.3,0-0.6,0.1-0.8l0,0c0.8-2.4-2.2-4.2-3.9-2.4c-0.2,0.2-0.3,0.3-0.5,0.5    c-3.4,3.5-7.5,7-12.4,10.5s-10.5,6.4-16.8,8.6S489.3,392.8,481.4,392.8L481.4,392.8z"></path>
		<path d="M652.1,392.8c-7.8,0-13.5-1.2-17-3.6s-5.7-5.5-6.5-9.3s-1.3-8-1.3-12.8V209.9c0-4.5,0.5-8.5,1.5-12.2    c1-3.6,3.2-6.5,6.7-8.6s9.2-3.1,17-3.1c6.7,0,11.8,0.8,15.1,2.5c3.4,1.7,5.6,3.9,6.7,6.5c1.1,2.7,1.8,5.2,1.9,7.6    c0.1,2.2,0.3,3.9,0.5,5.3c0,0.3,0.1,0.6,0,0.8l0,0c-0.3,2.8,3.1,4.3,4.9,2.1c0.6-0.7,1.2-1.4,1.9-2.1c3.9-4.2,8.7-8.1,14.3-11.6    s11.7-6.3,18.3-8.4c6.6-2.1,13.4-3.1,20.4-3.1c13.2,0,24.9,2.4,35.3,7.1c10.4,4.8,19.3,11.5,26.7,20.2s13.1,19.1,17,31.1    s5.9,25.4,5.9,39.9v83.6c0,4.8-0.5,9-1.5,12.8s-3.2,6.8-6.5,9c-3.4,2.2-9.1,3.4-17.2,3.4s-13.9-1.2-17.4-3.6s-5.8-5.5-6.7-9.3    c-1-3.8-1.5-8-1.5-12.8v-83.2c0-10.1-1.7-18.8-5-26.1c-3.4-7.3-8.4-13-15.1-17c-6.7-4.1-15.1-6.1-25.2-6.1c-9.5,0-17.9,2-25.2,6.1    s-12.9,9.7-16.8,17c-3.9,7.3-5.9,16-5.9,26.1v83.6c0,4.8-0.4,9-1.3,12.8c-0.8,3.8-3,6.8-6.5,9C666,391.6,660.2,392.8,652.1,392.8    L652.1,392.8z"></path>
		<path d="M870.2,190.2l43.3,0.4l58-1.7c4.8,0,9,0.5,12.8,1.5s6.8,3.2,9,6.7s3.4,9.2,3.4,17s-1.1,13.1-3.4,16.6    c-2.3,3.5-5.2,5.8-8.8,6.9c-3.6,1.1-7.8,1.7-12.6,1.7l-56.3-1.3l-46.7,0.4c-7.3-0.3-12.3-2.2-14.9-5.9c-2.7-3.6-4-9.8-4-18.5    s1.6-14.5,4.8-18.3C858,192.1,863.1,190.2,870.2,190.2L870.2,190.2z M964.7,393.2c-13.7,0-25.5-1.4-35.3-4.2    c-9.8-2.8-17.9-7.1-24.2-13s-10.9-13.5-13.7-22.9s-4.2-20.5-4.2-33.4V141.5c0-4.8,0.4-9,1.3-12.8c0.8-3.8,3-6.7,6.5-8.8    c3.5-2.1,9.2-3.2,17-3.2s13.5,1.1,17,3.4c3.5,2.2,5.7,5.3,6.7,9c1,3.8,1.5,8.1,1.5,12.8V318c0,5.9,0.5,10.6,1.5,14.3    s2.5,6.4,4.6,8.2c2.1,1.8,4.9,3.1,8.4,3.8c3.5,0.7,7.8,1,12.8,1c5.3,0,9.9,0.4,13.7,1.3c3.8,0.8,6.7,2.9,8.6,6.1    c2,3.2,2.9,8.5,2.9,15.8c0,7.9-1.2,13.5-3.6,17c-2.4,3.5-5.5,5.7-9.3,6.5C973.3,392.7,969.2,393.2,964.7,393.2L964.7,393.2z"></path>
		<path d="M1200.5,392.3c-8.4,0-14.5-1.5-18.3-4.6c-3.7-3-5.7-7-6.1-12.1c0-0.3,0-0.6,0.1-1l0.1-0.2c0.7-3.3-3.3-5.4-5.7-3.1    c-0.9,0.9-1.9,1.8-2.9,2.8c-5.3,4.9-12.3,9.3-20.8,13c-8.6,3.8-19,5.7-31.3,5.7c-13.2,0-25.6-2.7-37.2-8.2s-21.9-13-30.9-22.7    s-16-20.7-21-33.2s-7.6-25.8-7.6-40.1s2.5-26.7,7.6-38.9c5-12.2,12.1-23,21.2-32.6c9.1-9.5,19.4-17,30.9-22.5s23.8-8.2,37-8.2    c11.2,0,20.8,1.5,28.8,4.6s14.8,6.9,20.4,11.6c2.2,1.8,4.2,3.6,6.1,5.5c2.3,2.3,6.2,0.3,5.7-3l0,0c0-0.2-0.1-0.3-0.1-0.5    c-0.2-6,1.6-10.6,5.5-13.8s10.2-4.8,18.9-4.8c7.6,0,13.1,1.2,16.6,3.6c3.5,2.4,5.7,5.7,6.5,9.9s1.3,8.8,1.3,13.9v153.4    c0,4.8-0.4,9.1-1.3,13c-0.8,3.9-3,7-6.5,9.3C1214,391.3,1208.3,392.4,1200.5,392.3L1200.5,392.3z M1123.2,343.6    c9.3,0,17.7-2.4,25.4-7.1c7.7-4.8,13.8-11.3,18.3-19.5c4.5-8.3,6.7-17.4,6.7-27.5c0-10.6-2.3-20-6.9-28.2    c-4.6-8.1-10.9-14.6-18.7-19.3c-7.8-4.8-16.4-7.1-25.6-7.1c-10.4,0-19.6,2.5-27.7,7.4s-14.5,11.5-19.1,19.7    c-4.6,8.3-6.9,17.6-6.9,28s2.4,19.2,7.1,27.3s11.3,14.6,19.5,19.3C1103.5,341.2,1112.8,343.6,1123.2,343.6L1123.2,343.6z"></path>
		<path d="M1460.6,248.8c-5-12.5-12-23.5-20.8-33s-19-16.9-30.5-22.3s-23.5-8-36.1-8c-13.7,0-25.8,2.7-36.3,8    c-5.8,2.9-11.1,6.5-16,10.6c-2.6,2.2-6.5,0.4-6.5-2.9l0,0c0-0.4-0.1-0.7-0.2-1.1c-1.4-5-4.2-8.6-8.3-10.8    c-4.2-2.2-9.9-3.4-17.2-3.4c-7.8,0-13.5,1.2-17,3.6c-3.5,2.4-5.7,5.5-6.5,9.3s-1.3,8.1-1.3,12.8v241.2c0,4.8,0.5,9,1.5,12.6    s3.2,6.6,6.7,9s9.2,3.6,17,3.6s13.6-1.2,17.2-3.6s5.9-5.5,6.9-9.3s1.3-8.1,1.1-12.8v-76.9c0-3.3,3.9-5.1,6.4-3    c4.7,3.9,9.9,7.2,15.6,9.9c10.8,5.2,23,7.8,36.8,7.8c12.9,0,25-2.5,36.3-7.6s21.4-12.1,30.3-21.2c8.8-9.1,15.8-19.8,20.8-32.1    c5-12.3,7.6-25.8,7.6-40.3S1465.6,261.3,1460.6,248.8L1460.6,248.8z M1411.2,316.9c-4.6,8.3-10.9,14.7-18.7,19.3    c-7.8,4.6-16.7,6.9-26.5,6.9c-9.3,0-17.8-2.3-25.6-6.9s-14.1-11.1-18.7-19.3c-4.6-8.3-6.9-17.6-6.9-28s2.3-19.6,6.9-27.7    s10.8-14.5,18.7-19.1c7.8-4.6,16.5-6.9,26.1-6.9s18.6,2.3,26.5,6.7c7.8,4.5,14,10.8,18.5,18.9s6.7,17.5,6.7,28.2    S1415.8,308.7,1411.2,316.9L1411.2,316.9z"></path>
		<path d="M1575.7,393.2c-10.4,0-19.5-0.7-27.5-2.1s-14.8-3.8-20.6-7.1c-5.8-3.4-10.5-7.9-14.3-13.7c-3.8-5.7-6.5-12.8-8.2-21.2    c-1.7-8.4-2.5-18.5-2.5-30.3V116.7c0-5,0.4-9.5,1.3-13.2s3.1-6.9,6.7-9.3s9.4-3.6,17.2-3.6s13.5,1.1,17,3.4s5.7,5.3,6.7,9.3    s1.5,8.3,1.5,13v200.5c0,5.3,0.3,9.7,1.1,13.2c0.7,3.5,2,6.3,3.8,8.4s4.2,3.6,7.1,4.4s6.5,1.3,10.7,1.3c3.6,0,6.9,0.4,9.9,1.3    s5.3,2.9,7.1,6.3c1.8,3.4,2.7,8.8,2.7,16.4s-0.9,13.6-2.7,17.2c-1.8,3.6-4.3,5.9-7.3,6.7C1582.3,392.8,1579.1,393.2,1575.7,393.2    L1575.7,393.2z"></path>
		<path class="st0" d="M1801.6,392.3c-8.4,0-14.5-1.5-18.3-4.6c-3.7-3-5.7-7-6.1-12.1c0-0.3,0-0.6,0.1-1l0.1-0.2    c0.7-3.3-3.3-5.4-5.7-3.1c-0.9,0.9-1.9,1.8-2.9,2.8c-5.3,4.9-12.3,9.3-20.8,13c-8.6,3.8-19,5.7-31.3,5.7    c-13.2,0-25.6-2.7-37.2-8.2s-21.9-13-30.9-22.7s-16-20.7-21-33.2s-7.6-25.8-7.6-40.1s2.5-26.7,7.6-38.9c5-12.2,12.1-23,21.2-32.6    c9.1-9.5,19.4-17,30.9-22.5s23.8-8.2,37-8.2c11.2,0,20.8,1.5,28.8,4.6s14.8,6.9,20.4,11.6c2.2,1.8,4.2,3.6,6.1,5.5    c2.3,2.3,6.2,0.3,5.7-3l0,0c0-0.2-0.1-0.3-0.1-0.5c-0.2-6,1.6-10.6,5.5-13.8s10.2-4.8,18.9-4.8c7.6,0,13.1,1.2,16.6,3.6    c3.5,2.4,5.7,5.7,6.5,9.9s1.3,8.8,1.3,13.9v153.4c0,4.8-0.4,9.1-1.3,13c-0.8,3.9-3,7-6.5,9.3    C1815.1,391.3,1809.4,392.4,1801.6,392.3L1801.6,392.3z M1724.2,343.6c9.3,0,17.7-2.4,25.4-7.1c7.7-4.8,13.8-11.3,18.3-19.5    c4.5-8.3,6.7-17.4,6.7-27.5c0-10.6-2.3-20-6.9-28.2c-4.6-8.1-10.9-14.6-18.7-19.3c-7.8-4.8-16.4-7.1-25.6-7.1    c-10.4,0-19.6,2.5-27.7,7.4s-14.5,11.5-19.1,19.7c-4.6,8.3-6.9,17.6-6.9,28s2.4,19.2,7.1,27.3s11.3,14.6,19.5,19.3    C1704.5,341.2,1713.9,343.6,1724.2,343.6L1724.2,343.6z"></path>
		<path d="M2061.8,200.5c-1.5-4.9-6.7-9.3-15.3-13.2c-9.3-3.9-16.2-5-20.8-3.1c-4.6,1.8-8.9,7.2-12.8,16.2l-40.4,90.5    c-2,4.5-8.2,5-10.8,0.8l-60.5-94.3c-5-7.8-10-12.3-14.9-13.4c-4.9-1.1-11.7,1-20.4,6.3c-7.8,4.8-12.3,9.7-13.2,14.7    c-1,5,0.9,11.4,5.7,18.9c14.7,26.3,32.6,54.5,54.6,83.5c9.8,13,19.7,25,29.4,36.3c-7.2,21.1-14.3,42.1-21.5,63.2l-16.3,36.4    c-3.9,8.1-5.1,14.6-3.6,19.5s6.8,9.5,15.8,13.7c9.3,3.9,16.1,5,20.6,3.4c4.5-1.7,8.5-7,12.2-16l109.3-244.2    C2062.2,211.8,2063.3,205.4,2061.8,200.5L2061.8,200.5z"></path>
		<path class="st0" d="M195,428.5c-5.4,0-10.2-0.7-14.3-2.2s-7.5-4-10-7.8s-3.7-9.6-3.7-17.5c0-7.5,1.3-13.1,3.7-16.8    c2.5-3.7,5.8-6.3,10-7.8s9.1-2.2,14.9-2.2c9.6,0,18.8-0.8,27.7-2.5s16.8-5,23.7-10s12.1-12.4,15.9-22.1c3.7-9.8,5.6-22.3,5.6-37.7    v-271c0-5.4,0.7-10,2.2-13.7s4.1-6.8,8.1-9c3.9-2.3,9.9-3.4,17.8-3.4c7.5,0,13.2,1.2,17.1,3.4c3.9,2.3,6.5,5.6,7.8,10    s1.9,9.4,1.9,15.3V302c0,21.6-3.3,40.4-10,56.4c-6.6,16-15.8,29.2-27.4,39.6s-25.2,18.1-40.8,23.1    C229.6,426,212.8,428.5,195,428.5L195,428.5z"></path>
		<path d="M128.3,4.7c5.4,0,10.2,0.7,14.3,2.2s7.5,4.1,10,7.8s3.7,9.6,3.8,17.4c0,7.5-1.2,13.1-3.7,16.8s-5.8,6.3-10,7.8    s-9.1,2.2-14.9,2.2c-9.6,0-18.8,0.8-27.7,2.5s-16.8,5-23.7,10s-12.2,12.4-16,22.2c-3.7,9.8-5.6,22.3-5.6,37.7l0.1,271    c0,5.4-0.7,10-2.2,13.7s-4.1,6.8-8.1,9c-3.9,2.3-9.9,3.4-17.8,3.4c-7.5,0-13.2-1.1-17.1-3.4s-6.6-5.6-7.8-10    c-1.3-4.4-1.9-9.5-1.9-15.3l0-268.4c0-21.6,3.3-40.4,9.9-56.4s15.8-29.2,27.4-39.6C49,24.9,62.6,17.2,78.1,12.2    C93.7,7.2,110.4,4.7,128.3,4.7z"></path>
		<path d="M109.3,433.9c-12.1,0-20.3-2.4-24.6-7.2c-4.4-4.8-6.5-13.2-6.5-25.2s2.2-20.3,6.5-24.6s12.8-6.5,25.2-6.5    s20.2,2.4,24.6,7.2c4.4,4.8,6.5,13.2,6.5,25.2s-2.3,19.7-6.9,24.3C129.7,431.6,121.4,433.9,109.3,433.9L109.3,433.9z"></path>
		<path d="M209.3,63.5c-12.1,0-20.3-2.4-24.6-7.2c-4.4-4.8-6.5-13.2-6.5-25.2s2.2-20.3,6.5-24.6S197.4,0,209.9,0s20.3,2.4,24.6,7.2    s6.5,13.2,6.5,25.2s-2.3,19.7-6.9,24.3C229.6,61.3,221.3,63.5,209.3,63.5L209.3,63.5z"></path>
		<path d="M207.7,204.9c6.6,3.9,6.6,13.5,0,17.3l-31,18.2l-31.2,17.7c-6.7,3.8-15-1-15-8.7l-0.3-35.9l0.3-35.9    c0.1-7.7,8.3-12.5,15-8.7l31.2,17.7L207.7,204.9L207.7,204.9z"></path>
	</g>
</g>
</svg>
