<svg xmlns="http://www.w3.org/2000/svg" width="420" height="320" viewBox="0 0 420 320" fill="none">
  <defs>
    <linearGradient id="gravacao-bg" x1="0" y1="0" x2="1" y2="1">
      <stop offset="0%" stop-color="#081224" />
      <stop offset="100%" stop-color="#131f3e" />
    </linearGradient>
    <radialGradient id="gravacao-glow" cx="0.5" cy="0.2" r="0.85">
      <stop offset="0%" stop-color="#7b5bff" stop-opacity="0.4" />
      <stop offset="100%" stop-color="#081224" stop-opacity="0" />
    </radialGradient>
    <linearGradient id="spotlight" x1="0.5" y1="0" x2="0.5" y2="1">
      <stop offset="0%" stop-color="#f5c518" stop-opacity="0.75" />
      <stop offset="100%" stop-color="#f5c518" stop-opacity="0" />
    </linearGradient>
  </defs>
  <rect width="420" height="320" rx="28" fill="url(#gravacao-bg)" />
  <rect width="420" height="320" rx="28" fill="url(#gravacao-glow)" />
  <g opacity="0.45">
    <circle cx="90" cy="90" r="70" fill="rgba(61, 169, 252, 0.28)" />
    <circle cx="320" cy="70" r="72" fill="rgba(245, 197, 24, 0.22)" />
  </g>
  <path d="M120 300h180l-38-220h-104z" fill="rgba(10, 16, 36, 0.85)" stroke="rgba(61, 169, 252, 0.25)" stroke-width="2" />
  <path d="M178 98h64l36 202h-136z" fill="rgba(10, 16, 36, 0.75)" />
  <rect x="138" y="102" width="36" height="204" rx="10" fill="rgba(61, 169, 252, 0.18)" />
  <rect x="246" y="102" width="36" height="204" rx="10" fill="rgba(123, 91, 255, 0.18)" />
  <ellipse cx="210" cy="278" rx="80" ry="20" fill="#03060f" opacity="0.55" />
  <path d="M210 96c18 0 32-14 32-32s-14-32-32-32-32 14-32 32 14 32 32 32z" fill="#1b2747" stroke="#2b4a80" stroke-width="4" />
  <circle cx="210" cy="56" r="18" fill="#3da9fc" />
  <path d="M178 106v18c0 7 6 12 13 12h38c8 0 14-5 14-12v-18z" fill="#3da9fc" opacity="0.15" />
  <g opacity="0.65">
    <path d="M72 188 112 92" stroke="url(#spotlight)" stroke-width="10" stroke-linecap="round" />
    <path d="M348 188 308 92" stroke="url(#spotlight)" stroke-width="10" stroke-linecap="round" />
  </g>
  <g>
    <rect x="168" y="150" width="84" height="48" rx="12" fill="rgba(10, 16, 36, 0.8)" stroke="rgba(61, 169, 252, 0.35)" stroke-width="2" />
    <rect x="182" y="166" width="56" height="16" rx="8" fill="#3da9fc" opacity="0.75" />
    <rect x="182" y="188" width="48" height="10" rx="5" fill="#3da9fc" opacity="0.4" />
  </g>
  <g opacity="0.7">
    <path d="M90 240h36" stroke="#3da9fc" stroke-width="4" stroke-linecap="round" />
    <path d="M294 240h36" stroke="#f5c518" stroke-width="4" stroke-linecap="round" />
  </g>
  <text x="210" y="308" fill="#f4f6ff" font-family="'Inter', 'Segoe UI', Arial, sans-serif" font-size="18" font-weight="600" text-anchor="middle">
    Estúdio iluminado para gravações impactantes
  </text>
</svg>
