<svg xmlns="http://www.w3.org/2000/svg" width="420" height="320" viewBox="0 0 420 320" fill="none">
  <defs>
    <linearGradient id="reuniao-bg" x1="0" y1="0" x2="1" y2="1">
      <stop offset="0%" stop-color="#061224" />
      <stop offset="100%" stop-color="#111f3f" />
    </linearGradient>
    <radialGradient id="reuniao-glow" cx="0.3" cy="0.1" r="1">
      <stop offset="0%" stop-color="#3da9fc" stop-opacity="0.35" />
      <stop offset="100%" stop-color="#061224" stop-opacity="0" />
    </radialGradient>
  </defs>
  <rect width="420" height="320" rx="28" fill="url(#reuniao-bg)" />
  <rect width="420" height="320" rx="28" fill="url(#reuniao-glow)" />
  <g opacity="0.35">
    <circle cx="112" cy="64" r="60" fill="rgba(61, 169, 252, 0.32)" />
    <circle cx="320" cy="82" r="74" fill="rgba(245, 197, 24, 0.28)" />
  </g>
  <rect x="42" y="96" width="336" height="180" rx="24" fill="rgba(10, 16, 36, 0.85)" stroke="rgba(61, 169, 252, 0.3)" stroke-width="2" />
  <rect x="62" y="112" width="296" height="40" rx="14" fill="rgba(61, 169, 252, 0.14)" />
  <rect x="62" y="162" width="134" height="78" rx="18" fill="rgba(10, 16, 36, 0.75)" stroke="rgba(61, 169, 252, 0.35)" stroke-width="2" />
  <rect x="84" y="182" width="88" height="14" rx="7" fill="#3da9fc" opacity="0.75" />
  <rect x="84" y="204" width="70" height="12" rx="6" fill="#3da9fc" opacity="0.45" />
  <rect x="216" y="162" width="134" height="78" rx="18" fill="rgba(10, 16, 36, 0.75)" stroke="rgba(245, 197, 24, 0.35)" stroke-width="2" />
  <rect x="236" y="182" width="94" height="14" rx="7" fill="#f5c518" opacity="0.75" />
  <rect x="236" y="204" width="78" height="12" rx="6" fill="#f5c518" opacity="0.45" />
  <g opacity="0.6">
    <rect x="90" y="248" width="240" height="12" rx="6" fill="rgba(61, 169, 252, 0.28)" />
    <rect x="90" y="266" width="180" height="10" rx="5" fill="rgba(61, 169, 252, 0.18)" />
  </g>
  <path d="M210 266c12 0 22 8 22 18s-10 18-22 18-22-8-22-18 10-18 22-18z" fill="#3da9fc" opacity="0.22" />
  <text x="210" y="298" fill="#f4f6ff" font-family="'Inter', 'Segoe UI', Arial, sans-serif" font-size="18" font-weight="600" text-anchor="middle">
    Reunião híbrida com dashboards ao vivo
  </text>
  <g opacity="0.8">
    <circle cx="118" cy="132" r="10" fill="#3da9fc" />
    <circle cx="146" cy="132" r="10" fill="#7b5bff" />
    <circle cx="174" cy="132" r="10" fill="#f5c518" />
    <rect x="206" y="124" width="140" height="16" rx="8" fill="#3da9fc" opacity="0.7" />
    <rect x="206" y="146" width="100" height="10" rx="5" fill="#3da9fc" opacity="0.4" />
  </g>
</svg>
