<svg xmlns="http://www.w3.org/2000/svg" width="520" height="480" viewBox="0 0 520 480" fill="none">
  <defs>
    <linearGradient id="suporte-bg" x1="0" y1="0" x2="1" y2="1">
      <stop offset="0%" stop-color="#061224" />
      <stop offset="100%" stop-color="#122245" />
    </linearGradient>
    <radialGradient id="suporte-glow" cx="0.6" cy="0.1" r="0.9">
      <stop offset="0%" stop-color="#3da9fc" stop-opacity="0.32" />
      <stop offset="100%" stop-color="#061224" stop-opacity="0" />
    </radialGradient>
  </defs>
  <rect width="520" height="480" rx="32" fill="url(#suporte-bg)" />
  <rect width="520" height="480" rx="32" fill="url(#suporte-glow)" />
  <g opacity="0.4">
    <circle cx="120" cy="84" r="76" fill="rgba(61, 169, 252, 0.3)" />
    <circle cx="380" cy="74" r="90" fill="rgba(245, 197, 24, 0.26)" />
  </g>
  <rect x="80" y="140" width="360" height="220" rx="28" fill="rgba(10, 16, 36, 0.85)" stroke="rgba(61, 169, 252, 0.3)" stroke-width="2.5" />
  <rect x="108" y="166" width="156" height="96" rx="20" fill="rgba(10, 16, 36, 0.8)" stroke="rgba(61, 169, 252, 0.4)" stroke-width="2" />
  <rect x="128" y="188" width="116" height="14" rx="7" fill="#3da9fc" opacity="0.75" />
  <rect x="128" y="212" width="96" height="12" rx="6" fill="#3da9fc" opacity="0.45" />
  <rect x="256" y="166" width="156" height="96" rx="20" fill="rgba(10, 16, 36, 0.8)" stroke="rgba(245, 197, 24, 0.4)" stroke-width="2" />
  <rect x="276" y="188" width="116" height="14" rx="7" fill="#f5c518" opacity="0.75" />
  <rect x="276" y="212" width="96" height="12" rx="6" fill="#f5c518" opacity="0.45" />
  <rect x="108" y="278" width="304" height="38" rx="18" fill="rgba(61, 169, 252, 0.16)" />
  <g>
    <rect x="128" y="300" width="264" height="56" rx="18" fill="rgba(61, 169, 252, 0.14)" />
    <rect x="148" y="318" width="152" height="16" rx="8" fill="#3da9fc" opacity="0.65" />
    <rect x="312" y="318" width="62" height="16" rx="8" fill="#f5c518" opacity="0.65" />
  </g>
  <g opacity="0.85">
    <circle cx="108" cy="120" r="14" fill="#3da9fc" />
    <circle cx="144" cy="120" r="14" fill="#7b5bff" />
    <circle cx="180" cy="120" r="14" fill="#f5c518" />
    <rect x="218" y="108" width="180" height="20" rx="10" fill="#3da9fc" opacity="0.7" />
    <rect x="218" y="134" width="130" height="12" rx="6" fill="#3da9fc" opacity="0.4" />
  </g>
  <g opacity="0.3">
    <circle cx="132" cy="352" r="10" fill="#3da9fc" />
    <circle cx="268" cy="360" r="12" fill="#f5c518" />
    <circle cx="392" cy="352" r="10" fill="#7b5bff" />
  </g>
  <text x="260" y="398" fill="#f4f6ff" font-family="'Inter', 'Segoe UI', Arial, sans-serif" font-size="22" font-weight="600" text-anchor="middle">
    Equipe ativa, dashboards e canais 24/7
  </text>
  <text x="260" y="430" fill="#c5c9e6" font-family="'Inter', 'Segoe UI', Arial, sans-serif" font-size="16" font-weight="400" text-anchor="middle">
    Central única com relatórios, plantões ao vivo e comunidade moderada
  </text>
</svg>
