<svg xmlns="http://www.w3.org/2000/svg" width="880" height="640" viewBox="0 0 880 640" fill="none">
  <defs>
    <linearGradient id="hero-bg" x1="0" y1="0" x2="1" y2="1">
      <stop offset="0%" stop-color="#070b1d" />
      <stop offset="50%" stop-color="#0e1634" />
      <stop offset="100%" stop-color="#101b3f" />
    </linearGradient>
    <radialGradient id="hero-glow" cx="0.5" cy="0.9" r="0.65">
      <stop offset="0%" stop-color="#3da9fc" stop-opacity="0.5" />
      <stop offset="100%" stop-color="#070b1d" stop-opacity="0" />
    </radialGradient>
    <linearGradient id="hero-stage" x1="0" y1="0" x2="1" y2="0">
      <stop offset="0%" stop-color="#3da9fc" />
      <stop offset="100%" stop-color="#2b7bd1" />
    </linearGradient>
    <linearGradient id="hero-dress" x1="0" y1="0" x2="0" y2="1">
      <stop offset="0%" stop-color="#3f7bff" />
      <stop offset="100%" stop-color="#122d78" />
    </linearGradient>
    <linearGradient id="hero-skin" x1="0" y1="0" x2="0" y2="1">
      <stop offset="0%" stop-color="#f8d7c8" />
      <stop offset="100%" stop-color="#e6b79d" />
    </linearGradient>
    <radialGradient id="card-glow" cx="0.5" cy="0.5" r="0.9">
      <stop offset="0%" stop-color="#f5c518" stop-opacity="0.35" />
      <stop offset="100%" stop-color="#070b1d" stop-opacity="0" />
    </radialGradient>
    <filter id="hero-blur" x="-20%" y="-20%" width="140%" height="140%">
      <feGaussianBlur stdDeviation="60" />
    </filter>
  </defs>
  <rect width="880" height="640" rx="36" fill="url(#hero-bg)" />
  <rect width="880" height="640" rx="36" fill="url(#hero-glow)" />
  <g filter="url(#hero-blur)">
    <circle cx="160" cy="140" r="90" fill="rgba(61, 169, 252, 0.32)" />
    <circle cx="720" cy="120" r="110" fill="rgba(245, 197, 24, 0.28)" />
    <circle cx="760" cy="420" r="130" fill="rgba(104, 74, 255, 0.24)" />
  </g>
  <ellipse cx="440" cy="490" rx="280" ry="70" fill="#04070f" opacity="0.5" />
  <ellipse cx="440" cy="470" rx="230" ry="45" fill="url(#hero-stage)" opacity="0.35" />
  <ellipse cx="440" cy="452" rx="200" ry="30" fill="rgba(61, 169, 252, 0.28)" opacity="0.45" />
  <g opacity="0.85">
    <rect x="214" y="140" width="180" height="110" rx="24" fill="rgba(10, 16, 36, 0.75)" stroke="rgba(61, 169, 252, 0.35)" stroke-width="2" />
    <rect x="222" y="152" width="164" height="30" rx="12" fill="rgba(61, 169, 252, 0.14)" />
    <rect x="222" y="192" width="72" height="12" rx="6" fill="#3da9fc" opacity="0.7" />
    <rect x="222" y="212" width="126" height="12" rx="6" fill="#3da9fc" opacity="0.35" />
    <rect x="486" y="110" width="220" height="130" rx="28" fill="rgba(10, 16, 36, 0.75)" stroke="rgba(245, 197, 24, 0.35)" stroke-width="2" />
    <rect x="502" y="130" width="188" height="30" rx="14" fill="rgba(245, 197, 24, 0.18)" />
    <rect x="502" y="172" width="88" height="14" rx="7" fill="#f5c518" opacity="0.6" />
    <rect x="502" y="196" width="142" height="14" rx="7" fill="#f5c518" opacity="0.35" />
  </g>
  <g>
    <path d="M428 254c0-23 18-41 41-41s41 18 41 41-18 41-41 41-41-18-41-41z" fill="#0f1d40" stroke="#2f3f7a" stroke-width="4" />
    <circle cx="469" cy="220" r="38" fill="#101733" />
    <path d="M453 210c6-12 18-20 32-20 14 0 26 8 32 20-8 8-20 13-32 13s-24-5-32-13z" fill="#1c264d" />
    <circle cx="485" cy="214" r="12" fill="#3da9fc" />
    <path d="M445 256c-6 0-11 5-11 11v18c0 5 4 9 9 9h46c11 0 22 5 29 14l20 25c4 5 11 6 17 4h1c7-3 10-11 7-18l-20-46c-9-20-29-33-50-33z" fill="url(#hero-dress)" />
    <path d="M499 268c18 2 34 13 42 30l18 42" stroke="#8fb5ff" stroke-width="6" stroke-linecap="round" opacity="0.6" />
    <path d="M421 322c9 18 20 33 33 46 10 10 23 16 37 18l-8 72c-1 9 6 17 16 17h4c8 0 15-6 16-14l15-90" stroke="#0d1329" stroke-width="14" stroke-linecap="round" stroke-linejoin="round" fill="none" />
    <path d="M470 325 432 452" stroke="#12265a" stroke-width="12" stroke-linecap="round" />
    <path d="M520 325 552 452" stroke="#12265a" stroke-width="12" stroke-linecap="round" />
    <path d="M429 250c-8-22 3-47 25-55 20-7 41 1 52 18-6 4-13 6-21 6-10 0-19-3-26-9-7 11-19 18-30 20z" fill="#fcded0" />
    <path d="M507 285c0-6 4-10 10-10 5 0 10 4 10 10s-5 10-10 10c-6 0-10-4-10-10z" fill="#f5c518" />
  </g>
  <g opacity="0.6">
    <path d="M350 420h-80c-6 0-10 4-10 10v20c0 6 4 10 10 10h80c6 0 10-4 10-10v-20c0-6-4-10-10-10z" fill="rgba(61, 169, 252, 0.12)" stroke="rgba(61, 169, 252, 0.4)" stroke-width="2" />
    <circle cx="285" cy="430" r="6" fill="#3da9fc" />
    <circle cx="305" cy="430" r="6" fill="#3da9fc" opacity="0.7" />
  </g>
  <g opacity="0.65">
    <path d="M612 404h88c6 0 10 4 10 10v24c0 6-4 10-10 10h-88c-6 0-10-4-10-10v-24c0-6 4-10 10-10z" fill="rgba(245, 197, 24, 0.12)" stroke="rgba(245, 197, 24, 0.4)" stroke-width="2" />
    <rect x="628" y="418" width="58" height="8" rx="4" fill="#f5c518" />
    <rect x="628" y="432" width="42" height="8" rx="4" fill="#f5c518" opacity="0.6" />
  </g>
  <g opacity="0.4">
    <circle cx="272" cy="360" r="8" fill="#3da9fc" />
    <circle cx="608" cy="176" r="6" fill="#f5c518" />
    <circle cx="196" cy="276" r="10" fill="#3da9fc" />
    <circle cx="672" cy="316" r="12" fill="#f5c518" />
  </g>
  <g opacity="0.7">
    <path d="M412 140 388 120" stroke="#3da9fc" stroke-width="3" stroke-linecap="round" />
    <path d="M466 124 482 100" stroke="#f5c518" stroke-width="3" stroke-linecap="round" />
    <path d="M520 148 544 130" stroke="#3da9fc" stroke-width="3" stroke-linecap="round" />
  </g>
  <circle cx="430" cy="118" r="26" fill="rgba(61, 169, 252, 0.16)" />
  <circle cx="510" cy="104" r="18" fill="rgba(245, 197, 24, 0.18)" />
</svg>
