<svg xmlns="http://www.w3.org/2000/svg" width="1200" height="630" viewBox="0 0 1200 630" fill="none">
  <defs>
    <linearGradient id="og-bg" x1="0" y1="0" x2="1" y2="1">
      <stop offset="0%" stop-color="#05070f" />
      <stop offset="50%" stop-color="#0c1328" />
      <stop offset="100%" stop-color="#111c3a" />
    </linearGradient>
    <radialGradient id="og-highlight" cx="0.75" cy="0.2" r="0.65">
      <stop offset="0%" stop-color="#3da9fc" stop-opacity="0.8" />
      <stop offset="100%" stop-color="#05070f" stop-opacity="0" />
    </radialGradient>
    <linearGradient id="og-accent" x1="0" y1="0" x2="1" y2="0">
      <stop offset="0%" stop-color="#f5c518" />
      <stop offset="100%" stop-color="#f19d00" />
    </linearGradient>
  </defs>
  <rect width="1200" height="630" fill="url(#og-bg)" />
  <rect width="1200" height="630" fill="url(#og-highlight)" opacity="0.55" />
  <g opacity="0.18">
    <circle cx="220" cy="160" r="96" fill="#3da9fc" />
    <circle cx="1010" cy="160" r="120" fill="#f5c518" />
    <circle cx="980" cy="470" r="140" fill="#2b7bd1" />
  </g>
  <rect x="120" y="120" width="420" height="420" rx="40" fill="#0f1a33" stroke="#1f3358" stroke-width="6" />
  <circle cx="330" cy="270" r="120" fill="#142246" stroke="#26407a" stroke-width="6" />
  <path
    d="M278 376c0-24 20-44 44-44h116c24 0 44 20 44 44v10c0 6-5 10-10 10H288c-6 0-10-4-10-10z"
    fill="url(#og-accent)"
  />
  <rect x="320" y="208" width="60" height="144" rx="30" fill="#ffffff" opacity="0.12" />
  <circle cx="350" cy="170" r="34" fill="#3da9fc" />
  <path
    d="M250 308c0-27 22-49 49-49h162c27 0 49 22 49 49s-22 49-49 49H299c-27 0-49-22-49-49z"
    fill="#ffffff"
    opacity="0.08"
  />
  <g opacity="0.85">
    <circle cx="216" cy="304" r="18" fill="#3da9fc" />
    <circle cx="432" cy="252" r="14" fill="#f5c518" />
    <circle cx="266" cy="212" r="10" fill="#3da9fc" opacity="0.6" />
    <circle cx="428" cy="190" r="12" fill="#f5c518" opacity="0.6" />
  </g>
  <text x="600" y="240" fill="#f4f6ff" font-family="'Inter', 'Segoe UI', Arial, sans-serif" font-size="64" font-weight="700">
    Comunicação Sem Medo
  </text>
  <text x="600" y="308" fill="#c5c9e6" font-family="'Inter', 'Segoe UI', Arial, sans-serif" font-size="36" font-weight="500">
    Método Oratória Estratégica da Dra. Cláudia Barbosa de Paiva
  </text>
  <rect x="600" y="360" width="420" height="4" fill="#1f3358" />
  <text x="600" y="420" fill="#3da9fc" font-family="'Inter', 'Segoe UI', Arial, sans-serif" font-size="32" font-weight="600">
    Clareza • Confiança • Convencimento
  </text>
  <text x="600" y="476" fill="#f5c518" font-family="'Inter', 'Segoe UI', Arial, sans-serif" font-size="28" font-weight="600">
    +15 horas on-demand · Bônus exclusivos · Garantia de 7 dias
  </text>
</svg>
