<svg xmlns="http://www.w3.org/2000/svg" width="1200" height="630" viewBox="0 0 1200 630" fill="none">
  <defs>
    <linearGradient id="og-bg" x1="0" y1="0" x2="1" y2="1">
      <stop offset="0%" stop-color="#060b1d" />
      <stop offset="45%" stop-color="#0f1a38" />
      <stop offset="100%" stop-color="#111f45" />
    </linearGradient>
    <radialGradient id="og-overlay" cx="0.75" cy="0.3" r="0.8">
      <stop offset="0%" stop-color="#3da9fc" stop-opacity="0.48" />
      <stop offset="100%" stop-color="#060b1d" stop-opacity="0" />
    </radialGradient>
    <radialGradient id="og-stage" cx="0.5" cy="1" r="0.9">
      <stop offset="0%" stop-color="#3da9fc" stop-opacity="0.55" />
      <stop offset="100%" stop-color="#070b1d" stop-opacity="0" />
    </radialGradient>
    <linearGradient id="og-dress" x1="0" y1="0" x2="0" y2="1">
      <stop offset="0%" stop-color="#527cff" />
      <stop offset="100%" stop-color="#1a2f7d" />
    </linearGradient>
  </defs>
  <rect width="1200" height="630" rx="40" fill="url(#og-bg)" />
  <rect width="1200" height="630" rx="40" fill="url(#og-overlay)" />
  <g opacity="0.6">
    <circle cx="180" cy="140" r="110" fill="rgba(61, 169, 252, 0.28)" />
    <circle cx="1040" cy="120" r="140" fill="rgba(245, 197, 24, 0.24)" />
    <circle cx="980" cy="460" r="160" fill="rgba(111, 92, 255, 0.22)" />
  </g>
  <ellipse cx="340" cy="470" rx="250" ry="90" fill="#03060f" opacity="0.55" />
  <ellipse cx="348" cy="450" rx="210" ry="62" fill="url(#og-stage)" opacity="0.8" />
  <g>
    <path d="M268 284c0-28 22-50 50-50s50 22 50 50-22 50-50 50-50-22-50-50z" fill="#13264e" stroke="#28427a" stroke-width="5" />
    <circle cx="328" cy="240" r="44" fill="#121a37" />
    <path d="M306 232c8-14 23-22 40-22 17 0 32 8 40 22-9 9-24 15-40 15s-31-6-40-15z" fill="#1c2549" />
    <circle cx="346" cy="234" r="14" fill="#3da9fc" />
    <path d="M298 288c-8 0-14 6-14 14v24c0 7 6 12 13 12h58c13 0 25 6 33 16l26 32c4 6 12 8 18 6h1c9-4 13-14 8-23l-27-58c-12-25-36-41-63-41z" fill="url(#og-dress)" />
    <path d="M364 302c23 2 42 16 52 36l22 48" stroke="#94b8ff" stroke-width="7" stroke-linecap="round" opacity="0.7" />
    <path d="M288 352c12 23 26 42 42 58 13 12 28 20 46 23l-10 92c-1 11 8 20 19 20h4c10 0 18-7 19-17l18-114" stroke="#0d1429" stroke-width="16" stroke-linecap="round" stroke-linejoin="round" fill="none" />
    <path d="M330 358 280 506" stroke="#1d3570" stroke-width="14" stroke-linecap="round" />
    <path d="M396 358 438 506" stroke="#1d3570" stroke-width="14" stroke-linecap="round" />
    <path d="M290 282c-9-26 5-54 30-62 23-8 48 2 61 22-8 5-16 7-26 7-12 0-23-4-31-11-9 12-22 20-34 22z" fill="#fcdccf" />
  </g>
  <g opacity="0.85">
    <rect x="84" y="120" width="220" height="140" rx="26" fill="rgba(10, 16, 36, 0.8)" stroke="rgba(61, 169, 252, 0.4)" stroke-width="2.5" />
    <rect x="104" y="146" width="180" height="30" rx="14" fill="rgba(61, 169, 252, 0.18)" />
    <rect x="104" y="186" width="96" height="16" rx="8" fill="#3da9fc" opacity="0.6" />
    <rect x="104" y="208" width="140" height="12" rx="6" fill="#3da9fc" opacity="0.35" />
    <rect x="440" y="104" width="240" height="150" rx="28" fill="rgba(10, 16, 36, 0.8)" stroke="rgba(245, 197, 24, 0.4)" stroke-width="2.5" />
    <rect x="460" y="134" width="200" height="32" rx="14" fill="rgba(245, 197, 24, 0.22)" />
    <rect x="460" y="176" width="96" height="16" rx="8" fill="#f5c518" opacity="0.7" />
    <rect x="460" y="200" width="150" height="12" rx="6" fill="#f5c518" opacity="0.35" />
  </g>
  <rect x="620" y="120" width="2" height="390" fill="rgba(255, 255, 255, 0.08)" />
  <text x="660" y="210" fill="#f4f6ff" font-family="'Inter', 'Segoe UI', Arial, sans-serif" font-size="54" font-weight="700">
    Comunicação Sem Medo
  </text>
  <text x="660" y="258" fill="#3da9fc" font-family="'Inter', 'Segoe UI', Arial, sans-serif" font-size="28" font-weight="600">
    Método Oratória Estratégica da Dra. Cláudia Barbosa de Paiva
  </text>
  <text x="660" y="310" fill="#c5c9e6" font-family="'Inter', 'Segoe UI', Arial, sans-serif" font-size="22" font-weight="400">
    Clareza • Confiança • Convencimento • +15 horas on-demand
  </text>
  <rect x="660" y="340" width="360" height="2" fill="rgba(61, 169, 252, 0.35)" />
  <text x="660" y="380" fill="#f5c518" font-family="'Inter', 'Segoe UI', Arial, sans-serif" font-size="24" font-weight="600">
    Bônus, comunidade moderada e garantia de 7 dias
  </text>
  <text x="660" y="426" fill="#c5c9e6" font-family="'Inter', 'Segoe UI', Arial, sans-serif" font-size="20" font-weight="400">
    Aulas gravadas + mentorias ao vivo + planos de treino personalizados
  </text>
  <rect x="660" y="452" width="240" height="54" rx="27" fill="#3da9fc" />
  <text x="680" y="487" fill="#05070f" font-family="'Inter', 'Segoe UI', Arial, sans-serif" font-size="22" font-weight="700">
    Garanta sua vaga agora
  </text>
</svg>
