<svg width="96" height="96" viewBox="0 0 96 96" fill="none" xmlns="http://www.w3.org/2000/svg">
  <defs>
    <linearGradient id="appleOneBg" x1="12" y1="12" x2="84" y2="84" gradientUnits="userSpaceOnUse">
      <stop stop-color="#0B1224" />
      <stop offset="1" stop-color="#182238" />
    </linearGradient>
    <linearGradient id="appleOneStroke" x1="28" y1="20" x2="68" y2="76" gradientUnits="userSpaceOnUse">
      <stop stop-color="#A5B4FC" />
      <stop offset="1" stop-color="#60A5FA" />
    </linearGradient>
  </defs>
  <rect x="8" y="8" width="80" height="80" rx="22" fill="url(#appleOneBg)" />
  <rect x="12" y="12" width="72" height="72" rx="19" stroke="url(#appleOneStroke)" stroke-opacity="0.55" stroke-width="2.5" />
  <path d="M58.9 32.6c-2.4 0-5.2 1.6-6.8 1.6-1.7 0-4.3-1.5-7-1.5-5.4.1-11.4 4.4-11.4 13 0 8.3 6.9 16.9 12.3 16.9 2.3 0 3.5-1.4 6.4-1.4 2.9 0 3.8 1.4 6.5 1.4 3.3-.1 7.9-5.4 9.9-10.4-6.5-3.1-7.5-11.2-1.1-14.5-1.9-2.7-4.8-4.1-7.8-4.1z" fill="#F8FAFC" />
  <path d="M56.7 26.3c0 2-1 3.9-2.3 5.2-1.5 1.5-3.5 2.5-5.6 2.4-.2-1.9.7-3.9 2.1-5.3 1.4-1.5 3.7-2.5 5.8-2.3z" fill="#F8FAFC" />
  <path d="M44.5 68.4c0-8.5 3.7-13.4 9.4-13.4 1 0 1.9.1 2.7.4v4.7c-.7-.4-1.5-.5-2.2-.5-2.9 0-4.3 2-4.6 5.8h.1c1.1-1.4 2.6-2.1 4.6-2.1 3.3 0 6 2.4 6 6.6 0 4.5-2.9 7.3-6.7 7.3-4 0-7.3-3.1-7.3-8.8zm6.8 4.7c1.6 0 3-1.2 3-3.7 0-2.3-1.4-3.6-3.1-3.6-1.6 0-3 1.2-3 3.4 0 2.5 1.4 3.9 3.1 3.9z" fill="#C7D2FE" />
</svg>
