<svg width="96" height="96" viewBox="0 0 96 96" fill="none" xmlns="http://www.w3.org/2000/svg">
  <defs>
    <linearGradient id="peacockBg" x1="14" y1="14" x2="82" y2="82" gradientUnits="userSpaceOnUse">
      <stop stop-color="#0F172A" />
      <stop offset="1" stop-color="#111827" />
    </linearGradient>
  </defs>
  <rect x="8" y="8" width="80" height="80" rx="20" fill="url(#peacockBg)" />
  <rect x="12" y="12" width="72" height="72" rx="16" stroke="#F9FAFB" stroke-opacity="0.18" stroke-width="1.6" />
  <path d="M34 62V34h7.2c7 0 11.6 3.9 11.6 10.9 0 7.4-4.9 11.1-11.9 11.1h-3.3V62H34zm7-17c3.6 0 5.3-1.7 5.3-4.9 0-3-1.7-4.6-5.3-4.6h-3v9.5h3zM61.1 62V41.4h5.6v2.7c1-2 2.7-3.1 5.1-3.1 1.3 0 2.4.3 3.2.7l-1.5 5.6c-.8-.5-1.7-.7-2.6-.7-2.6 0-4.2 1.6-4.2 5.1V62h-5.6z" fill="#F9FAFB" />
  <g transform="translate(30 26)">
    <circle cx="2" cy="2" r="2" fill="#6EE7B7" />
    <circle cx="10" cy="2" r="2" fill="#22D3EE" />
    <circle cx="18" cy="2" r="2" fill="#A855F7" />
    <circle cx="26" cy="2" r="2" fill="#F472B6" />
    <circle cx="34" cy="2" r="2" fill="#FB923C" />
    <circle cx="42" cy="2" r="2" fill="#FACC15" />
  </g>
</svg>
