<svg xmlns="http://www.w3.org/2000/svg" viewBox="0 0 160 160">
  <defs>
    <linearGradient id="gradFamily" x1="15%" y1="20%" x2="85%" y2="85%">
      <stop offset="0%" stop-color="#a29bff" />
      <stop offset="100%" stop-color="#7a7dff" />
    </linearGradient>
    <linearGradient id="gradHeart" x1="0%" y1="0%" x2="100%" y2="100%">
      <stop offset="0%" stop-color="#fff" stop-opacity="0.95" />
      <stop offset="100%" stop-color="#f3f2ff" />
    </linearGradient>
    <filter id="familyShadow" x="-12%" y="-12%" width="124%" height="124%">
      <feDropShadow dx="0" dy="14" stdDeviation="12" flood-color="rgba(122,125,255,0.25)" />
    </filter>
  </defs>
  <rect width="160" height="160" rx="36" fill="url(#gradFamily)" opacity="0.95" />
  <g filter="url(#familyShadow)">
    <path d="M80 116s-32-18-32-44c0-12 8.2-20 18-20 8.5 0 14 5.7 14 5.7S86.5 52 95 52c9.8 0 18 8 18 20 0 26-33 44-33 44Z" fill="url(#gradHeart)" />
    <path d="M60 70c0-6.5 5-11 11.5-11 5.6 0 9.5 3.6 9.5 3.6s3.9-3.6 9.5-3.6c6.5 0 11.5 4.5 11.5 11 0 17.2-21 29.5-21 29.5S60 87.2 60 70Z" fill="#7a7dff" opacity="0.14" />
    <circle cx="62" cy="66" r="10" fill="#fff" opacity="0.45" />
    <circle cx="98" cy="66" r="10" fill="#fff" opacity="0.45" />
  </g>
</svg>
