<svg width="128" height="128" viewBox="0 0 128 128" fill="none" xmlns="http://www.w3.org/2000/svg">
  <defs>
    <linearGradient id="grad" x1="0" y1="0" x2="1" y2="1">
      <stop offset="0%" stop-color="#6A5AE0"/>
      <stop offset="100%" stop-color="#BF83FF"/>
    </linearGradient>
  </defs>
  <rect width="128" height="128" rx="64" fill="url(#grad)"/>
  <g opacity="0.15">
    <circle cx="64" cy="52" r="28" fill="#1F1F35"/>
    <path d="M26 114C29.2 87 44.8 72 64 72C83.2 72 98.8 87 102 114" fill="#1F1F35"/>
  </g>
  <circle cx="64" cy="52" r="26" fill="#F4F3FF"/>
  <path d="M32 112C34 88 47 74 64 74C81 74 94 88 96 112" fill="#F4F3FF"/>
  <circle cx="64" cy="48" r="18" fill="#C8C2FF"/>
  <path d="M41 107C44 90 53 80 64 80C75 80 84 90 87 107" fill="#C8C2FF"/>
</svg>
