<svg width="20" height="20" viewBox="0 0 20 20" xmlns="http://www.w3.org/2000/svg" aria-hidden="true">
    <path d="M19.6 10.23c0-.68-.06-1.36-.18-2H10v3.79h5.36c-.23 1.23-.93 2.27-1.97 2.97v2.47h3.19c1.86-1.71 2.92-4.23 2.92-7.23z" fill="#4285F4" />
    <path d="M10 20c2.7 0 4.97-.9 6.63-2.44l-3.19-2.47c-.88.59-2 .94-3.44.94-2.65 0-4.9-1.79-5.7-4.2H1.02v2.64C2.71 17.98 6.07 20 10 20z" fill="#34A853" />
    <path d="M4.3 11.83c-.2-.59-.3-1.21-.3-1.83s.11-1.24.3-1.83V5.53H1.02C.37 6.97 0 8.46 0 10s.37 3.03 1.02 4.47l3.28-2.64z" fill="#FBBC05" />
    <path d="M10 3.96c1.47 0 2.79.51 3.82 1.5l2.86-2.86C14.97.99 12.7 0 10 0 6.07 0 2.71 2.02 1.02 5.53l3.28 2.64c.81-2.41 3.05-4.21 5.7-4.21z" fill="#EA4335" />
</svg>
