<svg width="20" height="20" viewBox="0 0 20 20" xmlns="http://www.w3.org/2000/svg" aria-hidden="true">
    <path d="M14.35 10.61c-.02-2.04 1.67-3.02 1.75-3.07-0.96-1.4-2.45-1.59-2.98-1.61-1.27-.13-2.49.75-3.15.75-.65 0-1.66-.73-2.73-.71-1.4.02-2.7.82-3.41 2.08-1.46 2.51-.37 6.22 1.05 8.25.7 1.01 1.54 2.15 2.64 2.11 1.06-.04 1.46-.68 2.74-.68 1.27 0 1.64.68 2.74.66 1.13-.02 1.84-1.03 2.53-2.04.8-1.17 1.13-2.31 1.15-2.37-.02-.01-2.21-.85-2.23-3.38z" fill="#0F0F0F" />
    <path d="M12.38 4.11c.58-.7.96-1.67.85-2.64-.82.03-1.8.55-2.38 1.25-.52.61-.98 1.58-.86 2.52.91.07 1.81-.46 2.39-1.13z" fill="#0F0F0F" />
</svg>
