<svg xmlns="http://www.w3.org/2000/svg" viewBox="0 0 320 220" role="img" aria-labelledby="title desc">
  <title id="title">Quiz illustration</title>
  <desc id="desc">Abstract illustration representing a mobile quiz experience.</desc>
  <defs>
    <linearGradient id="quizGradient" x1="0%" y1="0%" x2="100%" y2="100%">
      <stop offset="0%" stop-color="#6a5ae0" />
      <stop offset="100%" stop-color="#bf83ff" />
    </linearGradient>
  </defs>
  <rect x="0" y="0" width="320" height="220" rx="24" fill="#f4f2ff" />
  <rect x="92" y="32" width="136" height="176" rx="24" fill="#fff" stroke="#6a5ae0" stroke-width="4" />
  <rect x="110" y="64" width="100" height="20" rx="10" fill="#6a5ae0" opacity="0.15" />
  <rect x="110" y="96" width="100" height="20" rx="10" fill="#6a5ae0" opacity="0.25" />
  <rect x="110" y="128" width="100" height="20" rx="10" fill="#6a5ae0" opacity="0.35" />
  <circle cx="160" cy="170" r="28" fill="url(#quizGradient)" />
  <path d="M160 148c7.2 0 13 5.8 13 13 0 4.6-2.7 9-6.6 11.2-.9.5-1.4 1.3-1.4 2.2v3.6h-10v-5.2c0-1.6.9-3.1 2.3-3.9 1.6-1 2.7-2.7 2.7-4.7 0-2.9-2.4-5.3-5.3-5.3-2.1 0-4 1.2-4.8 3l-9.3-4.5c2.5-5.3 7.8-8.9 14.1-8.9z" fill="#fff" />
  <circle cx="130" cy="44" r="8" fill="#bf83ff" opacity="0.6" />
  <circle cx="190" cy="44" r="8" fill="#242142" opacity="0.2" />
</svg>
